<?xml version="1.0" standalone="no"?>
<!DOCTYPE svg PUBLIC "-//W3C//DTD SVG 1.1//EN" "http://www.w3.org/Graphics/SVG/1.1/DTD/svg11.dtd" >
<svg xmlns="http://www.w3.org/2000/svg">
<metadata>Generated by IcoMoon</metadata>
<defs>
<font id="icomoon" horiz-adv-x="1024">
<font-face units-per-em="1024" ascent="960" descent="-64" />
<missing-glyph horiz-adv-x="1024" />
<glyph unicode="&#x20;" horiz-adv-x="512" d="" />
<glyph unicode="&#xe900;" glyph-name="ic_arrowdown" d="M512 161.707l-493.653 493.227c-8.3 8.457-13.423 20.057-13.423 32.853 0 25.911 21.005 46.916 46.916 46.916 13.115 0 24.973-5.381 33.486-14.056l426.674-426.674 426.667 426.667c8.244 7.568 19.284 12.206 31.406 12.206 25.685 0 46.507-20.822 46.507-46.507 0-12.123-4.638-23.162-12.237-31.44l0.031 0.034z" />
<glyph unicode="&#xe901;" glyph-name="ic_arrowleft" d="M225.707 448l493.227 493.653c8.457 8.3 20.057 13.423 32.853 13.423 25.911 0 46.916-21.005 46.916-46.916 0-13.115-5.381-24.973-14.056-33.486l-426.674-426.674 426.667-426.667c7.568-8.244 12.206-19.284 12.206-31.406 0-25.685-20.822-46.507-46.507-46.507-12.123 0-23.162 4.638-31.44 12.237l0.034-0.031z" />
<glyph unicode="&#xe902;" glyph-name="ic_arrowright" d="M798.293 448l-493.227-493.653c-8.457-8.3-20.057-13.423-32.853-13.423-25.911 0-46.916 21.005-46.916 46.916 0 13.115 5.381 24.973 14.056 33.486l426.674 426.674-426.667 426.667c-8.682 8.521-14.063 20.379-14.063 33.493 0 25.911 21.005 46.916 46.916 46.916 12.796 0 24.396-5.123 32.861-13.43l-0.007 0.007z" />
<glyph unicode="&#xe903;" glyph-name="ic_arrowup" d="M512 734.293l493.653-493.227c8.3-8.457 13.423-20.057 13.423-32.853 0-25.911-21.005-46.916-46.916-46.916-13.115 0-24.973 5.381-33.486 14.056l-426.674 426.674-426.667-426.667c-8.521-8.682-20.379-14.063-33.493-14.063-25.911 0-46.916 21.005-46.916 46.916 0 12.796 5.123 24.396 13.43 32.861l-0.007-0.007z" />
<glyph unicode="&#xe904;" glyph-name="ic_back" d="M334.080 797.013c5.524 3.578 12.276 5.705 19.525 5.705 20.030 0 36.267-16.237 36.267-36.267 0-7.358-2.191-14.204-5.956-19.921l0.084 0.136-259.84-262.4h863.147c0.127 0.002 0.277 0.003 0.427 0.003 20.030 0 36.267-16.237 36.267-36.267 0-0.001 0-0.002 0-0.003v0c0-20.265-16.428-36.693-36.693-36.693v0h-863.147l259.84-261.973c6.561-6.627 10.615-15.747 10.615-25.813s-4.054-19.187-10.618-25.816l0.003 0.003c-6.559-6.537-15.607-10.578-25.6-10.578s-19.041 4.041-25.601 10.579l0.001-0.001-322.133 324.693c-6.537 6.559-10.578 15.607-10.578 25.6s4.041 19.041 10.579 25.601l-0.001-0.001z" />
<glyph unicode="&#xe905;" glyph-name="ic_close" d="M576.853 448l433.493 433.493c10.319 8.514 16.846 21.305 16.846 35.62 0 25.449-20.631 46.080-46.080 46.080-14.315 0-27.105-6.527-35.557-16.768l-0.063-0.078-433.493-433.493-433.493 433.493c-7.887 6.511-18.099 10.46-29.234 10.46-25.449 0-46.080-20.631-46.080-46.080 0-11.134 3.949-21.347 10.523-29.312l-0.063 0.078 433.493-433.493-433.493-433.493c-10.319-8.514-16.846-21.305-16.846-35.62 0-25.449 20.631-46.080 46.080-46.080 14.315 0 27.105 6.527 35.557 16.768l0.063 0.078 433.493 433.493 433.493-433.493c8.514-10.319 21.305-16.846 35.62-16.846 25.449 0 46.080 20.631 46.080 46.080 0 14.315-6.527 27.105-16.768 35.557l-0.078 0.063z" />
<glyph unicode="&#xe906;" glyph-name="ic_dashboard" d="M401.92 898.987h-276.48c-35.582 0-64.427-28.845-64.427-64.427v0-165.973c0-35.582 28.845-64.427 64.427-64.427v0h276.48c35.582 0 64.427 28.845 64.427 64.427v0 165.973c0 35.582-28.845 64.427-64.427 64.427v0zM401.92 530.347h-276.48c-35.582 0-64.427-28.845-64.427-64.427v0-386.987c0-35.582 28.845-64.427 64.427-64.427v0h276.48c35.582 0 64.427 28.845 64.427 64.427v386.987c0 35.582-28.845 64.427-64.427 64.427v0zM881.067 309.333h-276.48c-35.582 0-64.427-28.845-64.427-64.427v0-165.973c0-35.582 28.845-64.427 64.427-64.427v0h276.48c35.582 0 64.427 28.845 64.427 64.427v0 165.973c0 35.582-28.845 64.427-64.427 64.427v0zM906.24 898.987h-276.48c-35.582 0-64.427-28.845-64.427-64.427v0-386.56c0-35.582 28.845-64.427 64.427-64.427h276.48c35.582 0 64.427 28.845 64.427 64.427v0 386.56c0 35.582-28.845 64.427-64.427 64.427v0z" />
<glyph unicode="&#xe907;" glyph-name="ic_eye" d="M1008.213 488.107c-53.156 86.944-125.086 157.509-210.504 207.536l-2.829 1.531c-80.977 50.199-179.201 79.952-284.373 79.952s-203.396-29.752-286.713-81.299l2.34 1.348c-88.226-51.588-160.149-122.146-211.841-206.449l-1.493-2.618c-6.306-11.612-10.012-25.427-10.012-40.107s3.707-28.494 10.236-40.558l-0.223 0.451c53.156-86.944 125.086-157.509 210.504-207.536l2.829-1.531c80.977-50.199 179.201-79.952 284.373-79.952s203.396 29.752 286.713 81.299l-2.34-1.348c88.226 51.588 160.149 122.146 211.841 206.449l1.493 2.618c8.389 11.018 13.44 24.972 13.44 40.107s-5.051 29.089-13.56 40.27l0.119-0.163zM384 643.413c28.856 30.576 69.656 49.611 114.902 49.611 4.61 0 9.175-0.198 13.685-0.585l-0.587 0.041c14.483-0.867 26.013-12.397 26.876-26.801l0.004-0.079c-0.867-14.483-12.397-26.013-26.801-26.876l-0.079-0.004c-0.127 0-0.277 0.001-0.427 0.001-65.83 0-119.224-53.244-119.466-119.018v-0.023s0 0 0 0c-0.867-14.483-12.397-26.013-26.801-26.876l-0.079-0.004c-14.483 0.867-26.013 12.397-26.876 26.801l-0.004 0.079c-0.064 1.771-0.101 3.851-0.101 5.939 0 45.463 17.386 86.866 45.871 117.923l-0.117-0.129zM753.067 259.413c-70.381-43.163-155.597-68.727-246.784-68.727-92.628 0-179.095 26.378-252.299 72.032l2.016-1.172c-76.439 49.010-139.93 111.277-188.838 184.151l-1.455 2.302c56.369 84.312 131.216 152.057 219.047 198.54l3.247 1.567c-21.439-36.771-34.465-80.767-35.409-127.727l-0.004-0.273c0-0.020 0-0.044 0-0.069 0-71.406 28.85-136.073 75.53-182.982l-0.010 0.010c47.511-44.162 111.405-71.263 181.63-71.263 0.796 0 1.591 0.003 2.385 0.010l-0.122-0.001c71.121 0.222 135.47 29.030 182.197 75.53l-0.010-0.010c45.624 45.566 73.846 108.546 73.846 178.118 0 1.431-0.012 2.859-0.036 4.284l0.003-0.215c-0.949 47.234-13.974 91.23-36.1 129.28l0.687-1.28c90.313-46.96 163.945-114.986 216.253-197.822l1.347-2.285c-50.759-77.879-116.166-141.924-192.799-189.63l-2.614-1.516z" />
<glyph unicode="&#xe908;" glyph-name="ic_eyeclosed" d="M1009.493 488.107c-50.793 81.039-117.519 147.492-196.245 196.476l-2.582 1.497-39.68-57.173c71.088-48.265 130.144-108.545 175.591-178.484l1.476-2.423c-50.053-74.763-113.278-136.627-186.898-183.655l-2.542-1.519c-68.2-44.433-151.665-70.858-241.301-70.858-1.868 0-3.733 0.011-5.595 0.034l0.283-0.003h-42.667l-49.92-65.28c27.258-4.857 59.194-8.081 91.718-8.942l0.868-0.018c106.461 0.893 205.34 32.592 288.374 86.602l-2.080-1.269c88.199 50.802 160.133 120.688 211.865 204.382l1.468 2.551c7.358 10.652 11.92 23.738 12.37 37.861l0.003 0.112c-3.024 15.104-8.049 28.531-14.871 40.822l0.364-0.716zM839.68 826.88c4.072 6.419 6.488 14.236 6.488 22.618 0 14.685-7.419 27.637-18.713 35.313l-0.149 0.095-11.52-17.92 11.093 18.347c-6.725 4.634-15.048 7.402-24.018 7.402-14.346 0-27.039-7.081-34.774-17.938l-0.088-0.131-92.587-131.84c-50.091 16.862-107.776 26.593-167.734 26.593-104.258 0-201.645-29.421-284.31-80.415l2.338 1.342c-88.199-50.802-160.133-120.688-211.865-204.382l-1.468-2.551c-7.333-10.498-11.717-23.528-11.717-37.582 0-15.324 5.212-29.431 13.96-40.645l-0.11 0.147c53.229-86.221 125.156-156.101 210.465-205.404l2.868-1.529c12.89-8.104 28.543-16.771 44.655-24.645l3.132-1.382-85.333-124.16c-5.958-7.279-9.568-16.68-9.568-26.925 0-22.878 18.006-41.55 40.619-42.618l0.096-0.004h6.4c11.632 1.788 21.538 8.054 28.077 16.948l579.923 826.145zM319.147 234.667c-21.666 9.767-39.302 19.028-56.358 29.163l2.598-1.429c-76.19 48.661-139.422 110.668-187.996 183.307l-1.444 2.293c53.221 84.423 126.281 151.876 212.85 196.958l3.044 1.442c-21.542-36.744-34.585-80.763-35.41-127.763l-0.003-0.237c-0.005-0.598-0.008-1.305-0.008-2.013 0-69.912 28.743-133.11 75.057-178.423l0.045-0.044c11.465-10.848 24.011-20.819 37.374-29.656l1.026-0.637zM529.493 645.12c-4.103-5.286-10.374-8.72-17.455-8.959l-0.038-0.001c-65.454-0.715-118.325-53.585-119.039-118.972l-0.001-0.068c-1.234-6.871-4.424-12.848-8.966-17.5l0.006 0.007c-4.174-5.123-10.438-8.404-17.472-8.533h-0.021c-6.871 1.234-12.848 4.424-17.5 8.966l0.007-0.006c-4.754 4.24-7.732 10.382-7.732 17.22 0 0.547 0.019 1.089 0.056 1.626l-0.004-0.072c-0.235 3.216-0.369 6.966-0.369 10.748 0 44.16 18.281 84.051 47.687 112.518l0.042 0.041c32.588 29.438 75.727 47.742 123.125 48.637l0.182 0.003c6.871-1.234 12.848-4.424 17.5-8.966l-0.007 0.006c5.286-4.103 8.72-10.374 8.959-17.455l0.001-0.038c-1.147-7.031-4.353-13.167-8.968-17.929l0.008 0.009z" />
<glyph unicode="&#xe909;" glyph-name="ic_loyality-" d="M870.827 764.587h-717.653c-42.17-3.158-75.189-38.15-75.189-80.853s33.019-77.695 74.919-80.837l0.27-0.016h717.653c42.17 3.158 75.189 38.15 75.189 80.853s-33.019 77.695-74.919 80.837l-0.27 0.016zM870.827 516.267h-717.653c-42.17-3.158-75.189-38.15-75.189-80.853s33.019-77.695 74.919-80.837l0.27-0.016h717.653c42.17 3.158 75.189 38.15 75.189 80.853s-33.019 77.695-74.919 80.837l-0.27 0.016zM870.827 267.947h-717.653c-44.772 0-81.067-36.295-81.067-81.067s36.295-81.067 81.067-81.067v0h717.653c44.772 0 81.067 36.295 81.067 81.067s-36.295 81.067-81.067 81.067v0z" />
<glyph unicode="&#xe90a;" glyph-name="ic_loyality" d="M638.293 569.173c0-70.692-57.308-128-128-128s-128 57.308-128 128c0 70.692 57.308 128 128 128s128-57.308 128-128zM348.587 327.253v-78.933c0-21.679 17.574-39.253 39.253-39.253v0h236.373c21.679 0 39.253 17.574 39.253 39.253v0 78.933c0 65.273-52.914 118.187-118.187 118.187v0h-78.507c-65.273 0-118.187-52.914-118.187-118.187v0zM506.027 839.253c0.285 0.001 0.622 0.001 0.96 0.001 128.167 0 241.986-61.426 313.627-156.444l0.72-0.998h-78.933v-78.933h157.867c0.085-0.001 0.185-0.001 0.285-0.001 18.347 0 33.754 12.587 38.057 29.596l0.058 0.271 39.253 156.587-76.373 19.2-19.627-77.227c-87.246 113.571-223.106 186.053-375.894 186.053-260.95 0-472.519-211.428-472.746-472.325v-0.021h78.933c0.242 217.485 176.361 393.755 393.766 394.24h0.047zM900.267 445.44c-0.162-217.61-176.607-393.956-394.24-393.956-128.485 0-242.614 61.464-314.589 156.593l-0.717 0.989h78.933v78.507h-157.44c-0.085 0.001-0.185 0.001-0.285 0.001-18.347 0-33.754-12.587-38.057-29.596l-0.058-0.271-39.253-157.44 76.373-19.2 19.2 77.227c87.246-113.571 223.106-186.053 375.894-186.053 261.091 0 472.747 211.656 472.747 472.747 0 0.159 0 0.319 0 0.478v-0.025z" />
<glyph unicode="&#xe90b;" glyph-name="ic_more" d="M201.387 448c0-55.611-45.082-100.693-100.693-100.693s-100.693 45.082-100.693 100.693c0 55.611 45.082 100.693 100.693 100.693s100.693-45.082 100.693-100.693zM612.693 448c0-55.611-45.082-100.693-100.693-100.693s-100.693 45.082-100.693 100.693c0 55.611 45.082 100.693 100.693 100.693s100.693-45.082 100.693-100.693zM1024 448c0-55.611-45.082-100.693-100.693-100.693s-100.693 45.082-100.693 100.693c0 55.611 45.082 100.693 100.693 100.693s100.693-45.082 100.693-100.693z" />
<glyph unicode="&#xe90c;" glyph-name="ic_notifications" d="M891.733 256.427c-58.097 49.311-94.72 122.391-94.72 204.025 0 0.122 0 0.245 0 0.367v-0.019 111.36c-0.269 139.977-103.407 255.785-237.827 275.865l-1.533 0.188v42.667c-2.164 20.301-19.198 35.975-39.893 35.975s-37.729-15.675-39.878-35.8l-0.015-0.176v-42.667c-135.953-20.268-239.091-136.076-239.36-276.025v-111.388c0-0.064 0-0.14 0-0.216 0-81.891-36.795-155.188-94.755-204.26l-0.392-0.323c-14.848-12.902-24.181-31.815-24.181-52.909 0-38.446 31.007-69.651 69.378-69.971h658.377c38.615 0.040 69.903 31.353 69.903 69.973 0 21.323-9.537 40.418-24.579 53.252l-0.097 0.081zM517.547-26.027c0.032 0 0.071 0 0.109 0 71.985 0 132.108 50.789 146.49 118.487l0.174 0.98h-293.12c14.534-68.573 74.492-119.309 146.329-119.467h0.017z" />
<glyph unicode="&#xe90d;" glyph-name="ic_plus" d="M978.347 493.653h-420.693v420.693c0 25.214-20.44 45.653-45.653 45.653s-45.653-20.44-45.653-45.653v0-420.693h-420.693c-25.214 0-45.653-20.44-45.653-45.653s20.44-45.653 45.653-45.653v0h420.693v-420.693c0-25.214 20.44-45.653 45.653-45.653s45.653 20.44 45.653 45.653v0 420.693h420.693c25.214 0 45.653 20.44 45.653 45.653s-20.44 45.653-45.653 45.653v0z" />
<glyph unicode="&#xe90e;" glyph-name="ic_transactions" d="M967.68 690.347h-731.307l64.853 65.28-58.88 58.88-165.973-165.547 165.547-165.973 59.307 59.307-64.427 64h730.88v84.053zM809.813 417.707l-59.307-59.307 64.853-64.853h-730.88v-83.627h730.88l-64.427-64.853 58.88-59.307 165.973 165.973-165.973 165.973z" />
<glyph unicode="&#xe90f;" glyph-name="ic_user" d="M899.413 194.987c-1.692 22.977-4.418 43.737-8.228 64.114l0.548-3.527c-4.239 23.91-9.418 44.436-15.877 64.386l0.944-3.372c-6.555 21.782-14.529 40.586-24.247 58.298l0.78-1.552c-10.564 18.779-23.035 34.92-37.502 49.023l-0.045 0.043c-15.19 14.341-33.189 25.898-53.059 33.741l-1.128 0.392c-19.876 7.84-42.897 12.386-66.981 12.386-0.752 0-1.503-0.004-2.253-0.013l0.114 0.001c-14.438-1.528-27.314-7.237-37.658-15.877l0.111 0.090-38.827-25.173c-14.463-8.802-31.149-16.343-48.763-21.767l-1.584-0.42c-18.463-6.343-39.737-10.006-61.867-10.006s-43.404 3.662-63.249 10.414l1.382-0.408c-19.197 5.838-35.883 13.38-51.341 22.746l0.994-0.559-39.253 25.173c-10.232 8.55-23.108 14.259-37.241 15.76l-0.306 0.026c-0.659 0.008-1.437 0.013-2.216 0.013-24.057 0-47.053-4.546-68.174-12.825l1.27 0.439c-21.001-8.225-39.002-19.783-54.266-34.207l0.079 0.074c-14.512-14.147-26.983-30.288-36.994-48.003l-0.553-1.063c-9.778-16.214-18.574-34.96-25.389-54.631l-0.638-2.116c-5.51-16.57-10.689-37.095-14.495-58.099l-0.438-2.914c-3.268-16.861-5.993-37.62-7.567-58.7l-0.113-1.886c0-18.347 0-37.547 0-56.32-0.207-3.043-0.326-6.596-0.326-10.177 0-42.771 16.872-81.601 44.324-110.198l-0.052 0.054c29.961-26.618 69.644-42.877 113.124-42.877 2.981 0 5.945 0.076 8.889 0.227l-0.413-0.017h461.653c2.531-0.134 5.495-0.211 8.476-0.211 43.48 0 83.162 16.259 113.298 43.030l-0.175-0.152c29.337 28.821 47.517 68.913 47.517 113.252 0 2.486-0.057 4.958-0.17 7.416l0.013-0.348c0 19.2 0 38.4 0 56.747zM495.787 470.187c0.936-0.014 2.041-0.022 3.148-0.022 62.646 0 119.263 25.815 159.793 67.388l0.046 0.047c41.12 40.5 66.595 96.783 66.595 159.016 0 1.396-0.013 2.789-0.038 4.179l0.003-0.209c0.014 0.936 0.022 2.041 0.022 3.148 0 62.646-25.815 119.263-67.388 159.793l-0.047 0.046c-41.701 41.736-99.329 67.552-162.987 67.552s-121.285-25.816-162.985-67.55l-0.002-0.002c-41.12-40.5-66.595-96.783-66.595-159.016 0-1.396 0.013-2.789 0.038-4.179l-0.003 0.209c-0.014-0.936-0.022-2.041-0.022-3.148 0-62.646 25.815-119.263 67.388-159.793l0.047-0.046c40.575-41.62 97.192-67.436 159.839-67.436 1.107 0 2.212 0.008 3.314 0.024l-0.167-0.002z" />
<glyph unicode="&#xe910;" glyph-name="ic_support" d="M721.067 789.333c59.733-55.467 89.6-128 89.6-209.067v-25.6h8.533c21.333 0 38.4-4.267 55.467-8.533l8.533-4.267v38.4c-4.267 204.8-166.4 366.933-371.2 371.2-204.8 0-371.2-166.4-375.467-371.2v-38.4l12.8 4.267c21.333 8.533 34.133 8.533 55.467 8.533h8.533v25.6c4.267 162.133 132.267 290.133 294.4 294.4 81.067 0 157.867-29.867 213.333-85.333zM200.533 512c-81.067 0-140.8-59.733-140.8-136.533 0-81.067 59.733-140.8 136.533-140.8v0 0c25.6 0 42.667 17.067 42.667 38.4v200.533c0 21.333-17.067 38.4-38.4 38.4zM827.733 512c-21.333 0-38.4-17.067-38.4-38.4v-200.533c0-21.333 17.067-38.4 42.667-38.4 76.8 0 136.533 59.733 136.533 140.8 0 76.8-59.733 136.533-140.8 136.533zM874.667 200.533c-17.067-8.533-34.133-8.533-55.467-8.533h-8.533v-12.8c0-68.267-55.467-123.733-123.733-123.733h-64c-12.8 21.333-38.4 38.4-64 38.4h-89.6c-38.4 0-72.533-34.133-72.533-72.533-4.267-21.333 4.267-38.4 17.067-55.467s34.133-25.6 55.467-25.6h89.6c25.6 0 46.933 12.8 64 38.4h72.533c55.467 4.267 102.4 25.6 140.8 64 34.133 38.4 55.467 89.6 51.2 145.067v12.8h-12.8z" />
<glyph unicode="&#xe911;" glyph-name="ic_settings" d="M981.333 541.867l-85.333 8.533c-8.533 34.133-21.333 64-38.4 93.867l55.467 68.267c8.533 12.8 8.533 25.6-4.267 38.4l-89.6 89.6c-8.533 8.533-25.6 8.533-38.4 4.267l-68.267-55.467c-29.867 17.067-64 29.867-93.867 38.4l-8.533 89.6c0 12.8-12.8 25.6-29.867 25.6h-128c-12.8 0-25.6-12.8-29.867-25.6l-12.8-85.333c-34.133-8.533-68.267-21.333-98.133-38.4l-68.267 55.467c-12.8 8.533-29.867 4.267-38.4-4.267l-89.6-89.6c-8.533-8.533-8.533-25.6 0-38.4l55.467-68.267c-21.333-34.133-34.133-64-42.667-98.133l-89.6-8.533c-12.8 0-25.6-12.8-25.6-29.867v-128c0-12.8 12.8-25.6 25.6-29.867l89.6-8.533c8.533-34.133 21.333-64 38.4-93.867l-55.467-68.267c-8.533-12.8-8.533-25.6 4.267-38.4l89.6-89.6c8.533-8.533 25.6-8.533 38.4-4.267l68.267 55.467c29.867-21.333 64-34.133 98.133-42.667l12.8-89.6c0-12.8 12.8-25.6 29.867-25.6h128c12.8 0 25.6 12.8 29.867 25.6l12.8 89.6c34.133 8.533 64 21.333 93.867 38.4l68.267-55.467c12.8-8.533 25.6-8.533 38.4 4.267l89.6 89.6c8.533 8.533 12.8 25.6 4.267 38.4l-64 68.267c17.067 29.867 29.867 64 38.4 93.867l89.6 12.8c12.8 0 25.6 12.8 25.6 29.867v128c0 12.8-8.533 25.6-25.6 29.867zM512 200.533c-136.533 0-247.467 110.933-247.467 247.467s110.933 247.467 247.467 247.467 247.467-110.933 247.467-247.467-110.933-247.467-247.467-247.467v0z" />
<glyph unicode="&#xe912;" glyph-name="ic_calendar" horiz-adv-x="1001" d="M363.055 396.8c0 13.964-9.309 23.273-23.273 23.273h-83.782c-13.964 0-23.273-9.309-23.273-23.273v-79.127c0-13.964 9.309-23.273 23.273-23.273h79.127c13.964 0 23.273 9.309 23.273 23.273v79.127zM563.2 396.8c0 13.964-9.309 23.273-23.273 23.273h-79.127c-13.964 0-23.273-9.309-23.273-23.273v-79.127c0-13.964 9.309-23.273 23.273-23.273h79.127c13.964 0 23.273 9.309 23.273 23.273v79.127zM768 396.8c0 13.964-9.309 23.273-23.273 23.273h-79.127c-13.964 0-23.273-9.309-23.273-23.273v-79.127c0-13.964 9.309-23.273 23.273-23.273h79.127c13.964 0 23.273 9.309 23.273 23.273v79.127zM363.055 192c0 13.964-9.309 23.273-23.273 23.273h-83.782c-9.309 0-23.273-9.309-23.273-23.273v-79.127c0-13.964 9.309-23.273 23.273-23.273h79.127c13.964 0 23.273 9.309 23.273 23.273v79.127zM563.2 192c0 13.964-9.309 23.273-23.273 23.273h-79.127c-13.964 0-23.273-9.309-23.273-23.273v-79.127c0-13.964 9.309-23.273 23.273-23.273h79.127c13.964 0 23.273 9.309 23.273 23.273v79.127zM768 192c0 13.964-9.309 23.273-23.273 23.273h-79.127c-13.964 0-23.273-9.309-23.273-23.273v-79.127c0-13.964 9.309-23.273 23.273-23.273h79.127c13.964 0 23.273 9.309 23.273 23.273v79.127zM912.291 848.291v-125.673c0-55.855-46.545-102.4-102.4-102.4 0 0 0 0 0 0h-65.164c-55.855 0-102.4 46.545-102.4 102.4v125.673h-283.927v-125.673c0-55.855-46.545-102.4-102.4-102.4h-65.164c-55.855 0-102.4 46.545-102.4 102.4 0 0 0 0 0 0v125.673c-51.2-4.655-88.436-46.545-88.436-93.091v-726.109c0-51.2 41.891-93.091 93.091-93.091h819.2c51.2 0 93.091 41.891 93.091 93.091v726.109c-4.655 46.545-41.891 88.436-93.091 93.091zM884.364 75.636c0-23.273-18.618-41.891-41.891-41.891h-684.218c-23.273 0-41.891 18.618-41.891 41.891v372.364c0 23.273 18.618 41.891 41.891 41.891v0h684.218c23.273 0 41.891-18.618 41.891-41.891v0-372.364zM190.836 685.382h65.164c18.618 0 32.582 13.964 32.582 32.582v209.455c0 18.618-13.964 32.582-37.236 32.582h-60.509c-18.618 0-37.236-13.964-37.236-32.582 0 0 0 0 0 0v-204.8c0-18.618 18.618-37.236 37.236-37.236zM744.727 685.382h65.164c18.618 0 32.582 13.964 32.582 32.582 0 0 0 0 0 0v209.455c0 18.618-13.964 32.582-32.582 32.582 0 0 0 0 0 0h-65.164c-18.618 0-32.582-13.964-32.582-32.582 0 0 0 0 0 0v-204.8c0-18.618 13.964-37.236 32.582-37.236z" />
<glyph unicode="&#xe913;" glyph-name="ic_important" d="M512-64c-281.6 0-512 230.4-512 512s230.4 512 512 512 512-230.4 512-512c0-281.6-230.4-512-512-512zM507.733 285.867c-21.333 0-42.667-17.067-42.667-42.667s17.067-42.667 42.667-42.667 42.667 17.067 42.667 42.667-17.067 42.667-42.667 42.667v0zM512 686.933c-25.6 0-46.933-21.333-46.933-46.933v-251.733c0-25.6 21.333-46.933 46.933-46.933s46.933 21.333 46.933 46.933v251.733c0 25.6-21.333 46.933-46.933 46.933z" />
<glyph unicode="&#xe914;" glyph-name="ic_mail" d="M98.133 601.6c12.8-8.533 51.2-38.4 115.2-81.067 64-46.933 115.2-81.067 149.333-102.4 4.267-4.267 12.8-8.533 25.6-17.067s21.333-17.067 29.867-21.333c8.533-4.267 17.067-12.8 29.867-17.067 8.533-4.267 21.333-12.8 34.133-17.067 8.533-4.267 17.067-4.267 29.867-4.267v0c8.533 0 21.333 0 29.867 4.267 12.8 4.267 21.333 8.533 34.133 17.067s21.333 12.8 29.867 17.067c8.533 4.267 17.067 12.8 29.867 21.333s21.333 12.8 25.6 17.067l268.8 187.733c25.6 17.067 51.2 42.667 68.267 68.267s25.6 55.467 29.867 85.333c0 51.2-42.667 89.6-89.6 89.6h-849.067c-25.6 0-51.2-8.533-68.267-29.867-12.8-21.333-21.333-46.933-21.333-72.533 0-29.867 12.8-55.467 29.867-76.8 21.333-25.6 42.667-51.2 68.267-68.267zM968.533 541.867c-123.733-85.333-221.867-149.333-285.867-196.267-21.333-17.067-38.4-29.867-51.2-38.4-17.067-12.8-34.133-21.333-55.467-25.6-21.333-8.533-42.667-12.8-64-12.8v0c-21.333 0-42.667 4.267-64 12.8-17.067 8.533-38.4 17.067-55.467 25.6-12.8 8.533-29.867 21.333-51.2 38.4-51.2 34.133-145.067 102.4-281.6 196.267-21.333 12.8-42.667 29.867-59.733 51.2v-452.267c0-25.6 8.533-46.933 25.6-64s38.4-25.6 64-25.6h840.533c51.2 0 89.6 42.667 89.6 89.6v452.267c-12.8-21.333-29.867-38.4-51.2-51.2z" />
<glyph unicode="&#xe915;" glyph-name="ic_more1" d="M234.667 448c0-58.91-47.756-106.667-106.667-106.667s-106.667 47.756-106.667 106.667c0 58.91 47.756 106.667 106.667 106.667s106.667-47.756 106.667-106.667zM618.667 448c0-58.91-47.756-106.667-106.667-106.667s-106.667 47.756-106.667 106.667c0 58.91 47.756 106.667 106.667 106.667s106.667-47.756 106.667-106.667zM1002.667 448c0-58.91-47.756-106.667-106.667-106.667s-106.667 47.756-106.667 106.667c0 58.91 47.756 106.667 106.667 106.667s106.667-47.756 106.667-106.667z" />
<glyph unicode="&#xe916;" glyph-name="ic_phone" d="M1015.467 166.4c-4.267 8.533-21.333 21.333-55.467 38.4-8.533 4.267-21.333 12.8-38.4 21.333s-34.133 17.067-46.933 25.6c-12.8 8.533-25.6 17.067-38.4 21.333-4.267 0-8.533 4.267-17.067 12.8-8.533 4.267-17.067 12.8-25.6 17.067-4.267 4.267-12.8 4.267-21.333 4.267-12.8-4.267-25.6-8.533-38.4-21.333s-29.867-29.867-38.4-46.933c-12.8-17.067-25.6-29.867-38.4-46.933-8.533-12.8-21.333-17.067-34.133-21.333-4.267 0-12.8 0-17.067 4.267-8.533 4.267-12.8 4.267-17.067 4.267s-8.533 4.267-17.067 8.533c-8.533 4.267-12.8 8.533-12.8 8.533-64 34.133-119.467 76.8-170.667 128s-93.867 106.667-128 170.667c0 0-4.267 4.267-8.533 12.8 0 17.067-4.267 21.333-4.267 25.6 0 0 0 4.267-4.267 12.8 0 4.267 0 8.533-4.267 12.8 4.267 12.8 8.533 25.6 21.333 34.133 12.8 12.8 29.867 25.6 46.933 38.4s29.867 25.6 42.667 42.667c12.8 8.533 17.067 21.333 21.333 38.4 0 8.533 0 12.8-4.267 21.333-4.267 4.267-8.533 12.8-17.067 21.333-4.267 8.533-8.533 17.067-12.8 17.067-4.267 12.8-12.8 25.6-21.333 38.4-8.533 17.067-17.067 29.867-25.6 46.933s-17.067 29.867-21.333 38.4c-17.067 34.133-29.867 55.467-38.4 55.467-4.267 4.267-8.533 4.267-17.067 4.267-17.067 0-34.133-4.267-51.2-8.533s-29.867-8.533-46.933-12.8c-34.133-21.333-64-51.2-76.8-89.6-25.6-42.667-38.4-89.6-38.4-136.533 0-12.8 0-25.6 4.267-38.4 0-12.8 4.267-29.867 8.533-42.667s8.533-25.6 8.533-34.133c0-8.533 8.533-21.333 17.067-38.4 8.533-21.333 12.8-29.867 12.8-34.133 17.067-42.667 34.133-85.333 59.733-128 42.667-68.267 98.133-136.533 157.867-192 59.733-59.733 123.733-110.933 192-157.867 38.4-25.6 81.067-46.933 128-59.733 4.267 0 17.067-4.267 34.133-12.8s34.133-12.8 38.4-12.8c8.533-4.267 17.067-4.267 34.133-8.533 12.8-4.267 25.6-8.533 42.667-8.533 59.733-8.533 119.467 4.267 174.933 34.133 38.4 17.067 68.267 42.667 89.6 76.8 8.533 17.067 12.8 34.133 17.067 51.2s8.533 34.133 8.533 51.2c-8.533 4.267-8.533 8.533-12.8 12.8z" />
<glyph unicode="&#xe917;" glyph-name="ic_car" d="M430.933 790.229h593.067v-384h-593.067v384zM388.267 649.429c0 17.067-12.8 29.867-29.867 29.867h-290.133c-12.8 0-25.6-8.533-29.867-25.6l-25.6-187.733c0 0 0-4.267 0-4.267v-98.133h-12.8v-115.2h59.733c-17.067-59.733 17.067-123.733 76.8-140.8s123.733 17.067 140.8 76.8c4.267 21.333 4.267 42.667 0 59.733h422.4c-17.067-59.733 17.067-123.733 76.8-140.8s123.733 17.067 140.8 76.8c4.267 21.333 4.267 42.667 0 64h106.667v115.2h-635.733v290.133zM170.667 167.296c-29.867 0-55.467 25.6-55.467 55.467s25.6 55.467 55.467 55.467 55.467-25.6 55.467-55.467v0c0-29.867-25.6-55.467-55.467-55.467zM328.533 564.096l-85.333-85.333h-170.667l21.333 145.067h238.933l-4.267-59.733zM810.667 278.229c29.867 0 55.467-25.6 55.467-55.467s-25.6-55.467-55.467-55.467c-29.867 0-55.467 25.6-55.467 55.467 0 0 0 0 0 0 0 29.867 25.6 51.2 55.467 55.467z" />
<glyph unicode="&#xe918;" glyph-name="icon-12" d="M761.486 538.418c0 0 41.412 31.49 9.889 62.979s-62.169-9.146-62.169-9.146l-316.886-316.954c0 0-74.218-95.785-130.649-37.868-56.364 57.984 37.835 130.683 37.835 130.683l415.506 415.473c0 0 96.966 106.821 188.127 15.728 91.026-91.127-16.099-188.296-16.099-188.296l-466.875-466.875c0 0-149.381-172.568-287.658-34.257s35.978 286.004 35.978 286.004l354.451 354.552c0 0 39.691 33.143 9.956 62.979-29.869 29.802-62.945-9.956-62.945-9.956l-406.731-406.731c0 0-153.532-168.383 17.922-339.803 171.454-171.522 339.938-17.989 339.938-17.989l559.015 559.082c0 0 111.85 123.359-21.499 256.776s-256.743 21.567-256.743 21.567l-481.017-480.949c0 0-123.191-100.206-11.408-211.921 111.783-111.85 210.166 13.163 210.166 13.163l341.896 341.761z" />
<glyph unicode="&#xe919;" glyph-name="id-card" d="M906.664 832h-789.328c-64.727 0-117.336-52.609-117.336-117.336v-533.328c0-64.727 52.609-117.336 117.336-117.336h789.328c64.727 0 117.336 52.609 117.336 117.336v533.328c0 64.727-52.609 117.336-117.336 117.336zM320 661.336c58.797 0 106.664-47.875 106.664-106.672 0-58.789-47.867-106.664-106.664-106.664s-106.664 47.875-106.664 106.664c0 58.797 47.867 106.672 106.664 106.672zM512 266.664c0-17.664-14.336-32-32-32h-320c-17.664 0-32 14.336-32 32v21.336c0 64.727 52.609 117.336 117.336 117.336h149.328c64.727 0 117.336-52.609 117.336-117.336zM864 234.664h-234.664c-17.664 0-32 14.336-32 32s14.336 32 32 32h234.664c17.664 0 32-14.336 32-32s-14.336-32-32-32zM864 405.336h-234.664c-17.664 0-32 14.336-32 32s14.336 32 32 32h234.664c17.664 0 32-14.336 32-32s-14.336-32-32-32zM864 576h-234.664c-17.664 0-32 14.336-32 32s14.336 32 32 32h234.664c17.664 0 32-14.336 32-32s-14.336-32-32-32z" />
<glyph unicode="&#xe91a;" glyph-name="ic_tax" d="M876.268 933.692c-15.566 7.172-33.909 4.381-46.64-7.092l-67.181-59.484c-1.827-1.627-4.584-1.617-6.402 0.019l-91.407 81.754c-16.532 14.813-41.56 14.813-58.092 0l-91.325-81.679c-1.837-1.641-4.613-1.641-6.451 0l-91.335 81.679c-16.532 14.811-41.56 14.811-58.092 0l-91.419-81.754c-1.83-1.636-4.594-1.644-6.434-0.017l-67.241 59.481c-17.839 15.864-45.161 14.264-61.025-3.575-7.114-8-11.006-18.355-10.924-29.058v-891.936c-0.16-23.91 19.093-43.421 43.002-43.581 10.711-0.073 21.066 3.829 29.068 10.948l67.181 59.484c1.827 1.627 4.584 1.617 6.402-0.019l91.407-81.754c16.532-14.813 41.56-14.813 58.092 0l91.335 81.679c1.837 1.641 4.613 1.641 6.451 0l91.335-81.677c16.534-14.806 41.56-14.806 58.092 0l91.424 81.754c1.83 1.636 4.594 1.644 6.434 0.017l67.241-59.481c17.846-15.857 45.166-14.245 61.023 3.602 7.102 7.992 10.989 18.335 10.912 29.029v891.936c0.228 17.135-9.774 32.759-25.43 39.725zM282.553 612.592h241.047c10.694 0 19.364-8.67 19.364-19.364s-8.67-19.364-19.364-19.364h-241.047c-10.694 0-19.364 8.67-19.364 19.364s8.67 19.364 19.364 19.364zM741.444 283.406h-458.891c-10.694 0-19.364 8.67-19.364 19.364s8.67 19.364 19.364 19.364h458.891c10.694 0 19.364-8.67 19.364-19.364s-8.67-19.364-19.364-19.364zM741.444 428.635h-458.891c-10.694 0-19.364 8.67-19.364 19.364s8.67 19.364 19.364 19.364h458.891c10.694 0 19.364-8.67 19.364-19.364s-8.67-19.364-19.364-19.364z" />
<glyph unicode="&#xe91b;" glyph-name="ic_map" d="M499.2 960c-226.133-8.533-405.333-196.267-396.8-422.4 0-21.333 4.267-42.667 8.533-64v0c0 0 0-4.267 4.267-12.8 4.267-25.6 12.8-55.467 25.6-81.067 81.067-170.667 200.533-320 349.867-435.2 12.8-12.8 34.133-12.8 46.933 0 149.333 115.2 268.8 264.533 349.867 435.2 12.8 25.6 21.333 51.2 25.6 81.067 0 8.533 4.267 12.8 4.267 12.8v0c42.667 221.867-102.4 435.2-324.267 477.867-34.133 8.533-64 8.533-93.867 8.533zM512 349.867c-110.933 0-200.533 89.6-200.533 196.267 0 110.933 89.6 200.533 200.533 200.533s200.533-89.6 200.533-196.267c0 0 0 0 0 0-4.267-115.2-89.6-200.533-200.533-200.533v0 0z" />
<glyph unicode="&#xe91c;" glyph-name="ic_list" d="M972.8 755.2h-921.6c-29.867 0-51.2 21.333-51.2 51.2s21.333 51.2 51.2 51.2h921.6c29.867 0 51.2-21.333 51.2-51.2s-21.333-51.2-51.2-51.2zM972.8 396.8h-921.6c-29.867 0-51.2 21.333-51.2 51.2s21.333 51.2 51.2 51.2h921.6c29.867 0 51.2-21.333 51.2-51.2s-21.333-51.2-51.2-51.2zM972.8 38.4h-921.6c-29.867 0-51.2 21.333-51.2 51.2s21.333 51.2 51.2 51.2h921.6c29.867 0 51.2-21.333 51.2-51.2s-21.333-51.2-51.2-51.2z" />
<glyph unicode="&#xe91d;" glyph-name="ic_comment" horiz-adv-x="1127" d="M896.055 960h-664.906c-127.599-0.151-230.998-103.55-231.149-231.134v-357.076c0-0.121 0-0.265 0-0.409 0-102.843 68.259-189.743 161.944-217.866l1.61-0.415 67.065-207.468c5.981-5.982 14.244-9.683 23.371-9.683s17.391 3.7 23.371 9.683v0l146.765 198.279h471.752c127.713 0 231.263 103.457 231.414 231.135v353.453c0 0.026 0 0.057 0 0.088 0 127.744-103.507 231.313-231.227 231.414h-0.010zM320.922 493.549c-0.002 0.131-0.003 0.286-0.003 0.442 0 18.251 14.795 33.047 33.047 33.047 0.001 0 0.002 0 0.003 0h419.355c18.251 0 33.047-14.795 33.047-33.047s-14.795-33.047-33.047-33.047h-419.355c-18.251 0-33.047 14.795-33.047 33.047v0zM773.324 577.226h-419.355c-18.251 0-33.047 14.795-33.047 33.047s14.795 33.047 33.047 33.047h419.355c18.251 0 33.047-14.795 33.047-33.047s-14.795-33.047-33.047-33.047v0z" />
<glyph unicode="&#xe91e;" glyph-name="clock-5" d="M512 810.007c-199.931 0-362.007-162.076-362.007-362.007s162.076-362.007 362.007-362.007c199.931 0 362.007 162.076 362.007 362.007v0c-0.22 199.842-162.164 361.787-361.986 362.007h-0.021zM541.968 418.032h-220.124v59.858h160.266v160.266h60.013zM874.007 810.007c-92.656 92.656-220.658 149.964-362.046 149.964-282.775 0-512.010-229.235-512.010-512.010 0-141.388 57.309-269.39 149.964-362.046v0c92.656-92.656 220.658-149.964 362.046-149.964 282.775 0 512.010 229.235 512.010 512.010 0 141.388-57.309 269.39-149.964 362.046v0zM512 25.98c-233.075 0-422.020 188.945-422.020 422.020s188.945 422.020 422.020 422.020c233.075 0 422.020-188.945 422.020-422.020v0c-0.264-232.969-189.051-421.756-421.994-422.020h-0.025z" />
</font>
</defs>
</svg>
